<?xml version="1.0" encoding="iso-8859-1"?>
<!-- Uploaded to: SVG Repo, www.svgrepo.com, Generator: SVG Repo Mixer Tools -->
<!DOCTYPE svg PUBLIC "-//W3C//DTD SVG 1.1//EN" "http://www.w3.org/Graphics/SVG/1.1/DTD/svg11.dtd">
<svg fill="#000000" version="1.1" id="Capa_1" xmlns="http://www.w3.org/2000/svg" xmlns:xlink="http://www.w3.org/1999/xlink" 
	 width="800px" height="800px" viewBox="0 0 474.542 474.542"
	 xml:space="preserve">
<g>
	<g>
		<path d="M168.018,107.948c17.984,0,35.106-9.218,45.036-24.209c10.069-15.202,11.721-35.034,4.307-51.697
			c-7.229-16.247-22.442-28.176-39.967-31.245c-17.895-3.133-36.529,3.109-48.902,16.41c-12.397,13.327-17.273,32.467-12.784,50.111
			c4.377,17.205,17.383,31.484,34.09,37.476C155.632,106.887,161.821,107.948,168.018,107.948z"/>
		<path d="M335.967,107.948c17.981,0,35.102-9.22,45.028-24.209c10.07-15.203,11.724-35.034,4.309-51.697
			c-7.229-16.246-22.44-28.176-39.964-31.245c-17.896-3.134-36.534,3.109-48.908,16.41c-12.396,13.327-17.271,32.467-12.783,50.111
			c4.377,17.206,17.384,31.484,34.092,37.476C323.579,106.888,329.768,107.948,335.967,107.948z"/>
		<path d="M436.319,223.985c0.855-7.847,1.004-15.744,1.117-23.628c-0.225-7.231-0.336-14.557-1.484-21.716
			c-1.397-11.153-4.028-22.312-8.248-32.746l-1.684-4.144c-1.955-4.106-4.017-8.092-6.24-12.059
			c-4.694-7.64-10.137-14.657-16.551-20.934c-2.109-1.943-4.16-3.876-6.324-5.567c-2.102-1.774-4.301-3.294-6.401-4.814
			c-2.728-1.775-5.45-3.535-8.31-5.093c-14.289,15.636-36.01,23.053-56.878,19.352c-13.513-2.397-26.015-9.367-35.23-19.525
			c-0.761,0.41-1.523,0.833-2.289,1.292c-2.105,1.168-4.191,2.567-6.359,3.977c-2.102,1.52-4.303,3.038-6.405,4.811
			c-2.166,1.689-4.218,3.623-6.328,5.565c-6.421,6.274-11.869,13.292-16.564,20.936c-0.049,0.085-0.098,0.171-0.145,0.256
			c-0.05-0.085-0.099-0.171-0.146-0.256c-4.694-7.64-10.141-14.669-16.566-20.936c-2.111-1.942-4.162-3.875-6.328-5.565
			c-2.102-1.773-4.303-3.291-6.406-4.811c-2.168-1.41-4.254-2.809-6.359-3.977c-0.764-0.459-1.529-0.882-2.289-1.292
			c-14.218,15.671-35.879,23.173-56.744,19.578c-13.546-2.334-26.098-9.263-35.365-19.404c-2.858,1.558-5.583,3.317-8.309,5.093
			c-2.1,1.521-4.301,3.04-6.402,4.814c-2.164,1.69-4.215,3.624-6.324,5.567c-6.414,6.276-11.856,13.294-16.551,20.934
			c-2.222,3.968-4.279,7.955-6.24,12.059l-1.682,4.144c-4.222,10.433-6.852,21.594-8.25,32.746
			c-1.143,7.162-1.254,14.484-1.484,21.716c0.123,8.1,0.301,16.195,1.186,24.255c-10.469,4.326-17.854,14.642-17.854,26.654v209.271
			c0,4.533,3.784,8.316,8.316,8.316c4.532,0,8.316-3.784,8.316-8.316V251.267c0-4.203,2.135-7.917,5.381-10.111
			c4.197,5.459,11.553,7.646,18.047,5.354c0.498,1.17,0.811,2.418,0.922,3.685c0.097,1.099,0.043,2.165,0.332,3.241
			c0.525,1.952,1.775,3.672,3.463,4.783c3.703,2.438,8.82,1.452,11.369-2.173c1.303,9.964,4.984,19.312,10.547,27.345l7.916,173.309
			c0.415,9.128,7.662,16.821,16.76,17.747c9.28,0.944,18.036-5.372,20.135-14.451c0.249-1.075,0.402-2.175,0.457-3.277
			l6.168-132.421l5.938,132.388c0.409,9.126,7.648,16.828,16.745,17.761c9.278,0.952,18.042-5.356,20.147-14.434
			c0.25-1.077,0.403-2.175,0.459-3.278l8.262-174.184c8.496-12.708,11.931-28.284,9.846-43.406l-12.467-87.137
			c0.088,0.113,0.178,0.221,0.266,0.334c1.051,1.541,2.234,3.002,3.188,4.694l1.527,2.47l1.379,2.623
			c3.822,7.143,6.439,15.028,8.236,22.909c1.546,5.589,2.15,11.463,2.92,17.195c0.025,0.32,1.317,16.291,0.971,28.274l-0.008,0.768
			c-0.08,9.006,7.583,16.462,16.577,16.139c8.993,0.32,16.653-7.132,16.573-16.139l-0.006-0.768
			c-0.707-9.609,0.943-27.955,0.972-28.274c0.764-5.732,1.374-11.606,2.92-17.195c1.792-7.88,4.412-15.77,8.235-22.909l1.377-2.623
			l1.529-2.47c0.953-1.691,2.135-3.153,3.187-4.694c0.09-0.113,0.178-0.221,0.266-0.334l-12.465,87.137
			c-0.334,2.414-0.527,4.921-0.584,7.461c-6.756,21.142-12.404,42.652-16.646,64.441c-4.844,24.874-7.88,50.173-8.083,75.532
			c-0.022,2.926,0.354,5.584,2.35,7.872c1.801,2.064,4.464,3.274,7.203,3.274h31.667l2.799,59.01
			c0.47,9.275,7.995,17.061,17.271,17.757c9.119,0.687,17.636-5.59,19.644-14.521c0.243-1.08,0.389-2.181,0.438-3.285l2.645-58.961
			H340l2.747,58.995c0.464,9.274,7.98,17.065,17.257,17.771c9.118,0.693,17.643-5.573,19.655-14.505
			c0.242-1.079,0.39-2.179,0.439-3.284l2.695-58.977h31.426c2.631,0,5.197-1.115,6.992-3.039c1.911-2.05,2.58-4.591,2.563-7.332
			c-0.037-6.481-0.262-12.962-0.656-19.432c-0.774-12.74-2.199-25.438-4.145-38.052c-3.562-23.124-8.846-45.974-15.398-68.428
			c-0.553-1.898-1.116-3.795-1.688-5.688c2.046,4.139,7.254,5.843,11.342,3.675c1.859-0.986,3.305-2.679,3.982-4.673
			c0.382-1.122,0.395-2.217,0.461-3.384c0.08-1.363,0.392-2.71,0.916-3.972c5.812,0.294,11.125-2.562,14.166-7.159
			c5.325,1.309,9.295,6.11,9.295,11.834v209.271c0,4.533,3.782,8.316,8.315,8.316s8.318-3.783,8.318-8.316V252.076
			C458.68,238.402,449.112,226.932,436.319,223.985z M106.125,239.142c-0.113,0.794-0.201,1.586-0.283,2.377
			c-1.199-3.331-2.998-6.375-5.266-9.012c0.027-0.384,0.051-0.769,0.049-1.159l-0.01-0.844c-0.032-3.816-0.184-7.649-0.043-11.463
			c0.207-5.623,0.547-11.202,1.016-16.81c0.77-5.731,1.378-11.605,2.924-17.194c1.793-7.883,4.421-15.766,8.24-22.91l1.381-2.624
			l1.529-2.472c0.84-1.491,1.857-2.806,2.805-4.152L106.125,239.142z M401.016,252.076c0,0.376,0.033,0.743,0.082,1.106
			c-0.906-2.944-1.812-5.817-2.709-8.601c-0.101-1.805-0.269-3.618-0.529-5.44l-12.344-86.261c0.949,1.347,1.965,2.661,2.807,4.152
			l1.527,2.472l1.381,2.624c3.822,7.142,6.447,15.028,8.24,22.91c1.546,5.589,2.154,11.462,2.924,17.194
			c0.469,5.607,0.807,11.187,1.016,16.81c0.144,3.813-0.011,7.647-0.043,11.463l-0.008,0.844c-0.014,2.32,0.492,4.541,1.394,6.562
			C402.379,242.098,401.016,246.929,401.016,252.076z"/>
		<path d="M408.51,96.561c3.438,5.038,8.36,9.628,13.551,12.822l0.719,0.446l0.547-0.342c2.154-1.279,4.138-2.893,6.021-4.535
			c2.623-2.286,5.099-4.795,7.152-7.612c1.842-2.524,3.533-5.503,3.696-8.696c0.169-3.302-1.686-5.993-4.35-7.786
			c-3.486-2.347-7.59-1.748-11.024,0.386c-0.213,0.132-2.011,1.524-2.068,1.484c-0.41-0.288-0.773-0.638-1.183-0.929
			c-1.673-1.189-3.606-2.112-5.649-2.412c-3.944-0.579-8.134,1.849-9.833,5.436C404.211,88.786,406.241,93.238,408.51,96.561
			C409.836,98.504,407.297,94.785,408.51,96.561z M408.518,84.46c1.88-2.239,4.67-3.468,7.566-2.767
			c-2.214,0.616-4.438,2.508-5.214,4.688c-0.924,2.594,0.271,5.319,1.478,7.607c2.626,4.976,6.324,9.544,10.135,13.659
			c-3.15-2.323-6.129-4.946-8.834-7.772C410.202,96.274,404.258,89.523,408.518,84.46C409.053,83.823,407.581,85.575,408.518,84.46z
			"/>
		<path d="M424.934,78.369c-0.154-2.612,0.684-5.138,3.01-6.551c2.5-1.514,5.54-1.787,8.055-0.195
			c-3.405-0.186-7.033,2.03-7.639,5.504c0.857-0.192,1.709-0.292,2.545-0.297h0.064c4.984,0,10.024,3.791,11.339,8.626
			c1.308,4.812-1.14,9.714-3.938,13.499c3.693-1.311,7.311-2.96,10.617-5.072c3.078-1.964,6.326-4.539,7.67-8.061
			c1.416-3.714-0.276-7.982-3.327-10.375c-2.287-1.796-5.277-2.113-8.07-1.622c-0.734,0.129-1.46,0.314-2.172,0.542
			c-0.441,0.142-0.952,0.611-1.242,0.16c-0.609-0.948-1.244-1.848-2.026-2.667c-3.109-3.259-7.296-4.303-11.46-2.414
			c-3.992,1.811-5.455,5.682-5.07,9.861C423.827,78.961,424.377,78.648,424.934,78.369
			C424.864,77.174,424.377,78.648,424.934,78.369z"/>
		<path d="M67.575,28.836c-5.482-2.299-11.141-1.835-15.973,1.663c-2.635,1.908-4.902,4.413-5.998,7.519
			c-2.085,5.909,0.489,12.246,3.63,17.262c3.461,5.526,8.024,10.354,12.85,14.706c3.594,3.241,7.42,6.427,11.593,8.906l0.936,0.584
			l1.225-0.761c5.219-3.193,9.995-7.313,14.346-11.596c4.298-4.233,8.357-8.905,11.211-14.253
			c2.717-5.092,4.293-11.368,1.382-16.734c-2.719-5.01-8.478-8.794-14.222-8.796c-4.482-0.001-8.826,2.008-12.367,4.638
			c-0.361,0.268-0.699,0.573-1.049,0.855c-0.168,0.135-0.336,0.289-0.521,0.401c-0.063,0.039-1.045-0.853-1.169-0.947
			C71.646,30.896,69.673,29.714,67.575,28.836C65.407,27.927,69.331,29.571,67.575,28.836z M78.141,72.337
			c5.674-6.603,11.357-13.675,15.121-21.578c1.726-3.623,3.111-7.732,1.55-11.659c-1.411-3.549-5.108-6.638-8.771-7.657
			c2.963-0.718,5.943-0.383,8.589,1.156c2.421,1.409,4.68,3.408,5.872,5.985c1.609,3.477,0.92,7.239-0.588,10.601
			c-3.015,6.724-8.49,12.354-13.797,17.331c-3.486,3.27-7.147,6.403-11,9.237C76.149,74.636,77.149,73.49,78.141,72.337
			C80.541,69.543,77.149,73.49,78.141,72.337z"/>
		<path d="M50.758,26.011c2.988-1.88,6.402-2.873,9.871-2.873h0.109c1.428,0.008,2.881,0.18,4.346,0.508
			c-1.025-5.933-7.234-9.714-13.043-9.397c4.202-2.661,9.205-2.261,13.445,0.153c4.163,2.37,5.719,6.757,5.445,11.364
			c0.951,0.477,1.891,1.012,2.811,1.603c0.529-5.667-0.812-11.57-5.616-15.085c-4.728-3.459-11.294-4.617-16.67-2.06
			c-2.643,1.257-4.921,3.202-6.821,5.409c-0.713,0.829-1.399,1.696-1.977,2.625c-0.198,0.318-0.396,0.636-0.598,0.95
			c-0.344,0.534-0.342,0.372-0.976,0.127c-5.485-2.116-12.31-2.651-17.459,0.614c-3.616,2.293-6.454,6.46-7.429,10.629
			c-0.775,3.322-0.18,6.722,1.395,9.721c3.602,6.86,10.885,11.49,17.534,14.999c4.14,2.185,8.457,4.047,12.868,5.613
			c-4.197-5.674-7.904-12.666-7.273-19.95C41.28,34.522,45.418,29.369,50.758,26.011C53.747,24.131,42.301,31.33,50.758,26.011z"/>
	</g>
</g>
</svg>